<?xml version="1.0" encoding="utf-8"?>
<!-- Generator: Adobe Illustrator 25.2.0, SVG Export Plug-In . SVG Version: 6.00 Build 0)  -->
<svg version="1.1" id="Layer_1" xmlns="http://www.w3.org/2000/svg" xmlns:xlink="http://www.w3.org/1999/xlink" x="0px" y="0px"
	 viewBox="0 0 24 24" style="enable-background:new 0 0 24 24;" xml:space="preserve">
<g>
	<path d="M21,7.3h-3.9l0.4-4.3c0-0.4-0.3-0.8-0.7-0.8c-0.4,0-0.8,0.3-0.8,0.7l-0.4,4.4H9.2l0.4-4.3c0-0.4-0.3-0.8-0.7-0.8
		c-0.4,0-0.8,0.3-0.8,0.7L7.7,7.3h-4C3.4,7.3,3,7.7,3,8.1s0.3,0.8,0.8,0.8h3.8l-0.6,6.3H3c-0.4,0-0.8,0.3-0.8,0.8
		c0,0.4,0.3,0.8,0.8,0.8h3.9l-0.4,4.3c0,0.4,0.3,0.8,0.7,0.8l0.1,0c0.4,0,0.7-0.3,0.7-0.7l0.4-4.4h6.3l-0.4,4.3
		c0,0.4,0.3,0.8,0.7,0.8l0.1,0c0.4,0,0.7-0.3,0.7-0.7l0.4-4.4h4c0.4,0,0.8-0.3,0.8-0.8c0-0.4-0.3-0.8-0.8-0.8h-3.8l0.5-6.3H21
		c0.4,0,0.8-0.3,0.8-0.8S21.4,7.3,21,7.3z M14.9,15.2H8.6l0.6-6.3h6.3C15.4,8.8,14.9,15.2,14.9,15.2z"/>
</g>
</svg>
