<?xml version="1.0" encoding="utf-8"?>
<!-- Generator: Adobe Illustrator 25.2.0, SVG Export Plug-In . SVG Version: 6.00 Build 0)  -->
<svg version="1.1" id="Layer_1" xmlns="http://www.w3.org/2000/svg" xmlns:xlink="http://www.w3.org/1999/xlink" x="0px" y="0px"
	 viewBox="0 0 24 24" style="enable-background:new 0 0 24 24;" xml:space="preserve">
<g>
	<path fill="#00acee" d="M22.6,7.4L12.5,1.9c-0.3-0.2-0.7-0.2-0.9,0L1.4,7.4C0.9,7.6,0.8,8.2,1,8.7C1.2,9,1.5,9.2,1.9,9.2c0.2,0,0.3,0,0.5-0.1
		l0.7-0.4L4.7,20C4.9,21.2,6,22,7.4,22h9.3c1.4,0,2.4-0.8,2.7-2.1l1.6-11.2l0.7,0.4c0.5,0.3,1.1,0.1,1.4-0.4
		C23.2,8.2,23.1,7.6,22.6,7.4L22.6,7.4z M12,15.4c-1.8,0-3.2-1.5-3.2-3.2s1.5-3.2,3.2-3.2s3.2,1.5,3.2,3.2S13.8,15.4,12,15.4z"/>
</g>
</svg>
