<?xml version="1.0" encoding="utf-8"?>
<!-- Generator: Adobe Illustrator 25.2.0, SVG Export Plug-In . SVG Version: 6.00 Build 0)  -->
<svg version="1.1" id="Layer_1" xmlns="http://www.w3.org/2000/svg" xmlns:xlink="http://www.w3.org/1999/xlink" x="0px" y="0px"
	 viewBox="0 0 24 24" style="enable-background:new 0 0 24 24;" xml:space="preserve">
<g>
	<path d="M19.2,3H4.8C3.2,3,2,4.3,2,5.8v12.5C2,19.8,3.2,21,4.8,21h14.5c1.5,0,2.8-1.2,2.8-2.8V5.8C22,4.3,20.8,3,19.2,3z M4.8,4.5
		h14.5c0.7,0,1.2,0.6,1.2,1.2v0.7l-8.1,5.4c-0.3,0.2-0.6,0.2-0.9,0L3.5,6.5V5.8C3.5,5.1,4.1,4.5,4.8,4.5z M19.2,19.5H4.8
		c-0.7,0-1.2-0.6-1.2-1.2v-10l7.2,4.8c0.4,0.3,0.8,0.4,1.3,0.4c0.4,0,0.9-0.1,1.3-0.4l7.2-4.8v10C20.5,19,19.9,19.5,19.2,19.5
		L19.2,19.5z"/>
</g>
</svg>
