<?xml version="1.0" encoding="utf-8"?>
<!-- Generator: Adobe Illustrator 25.2.0, SVG Export Plug-In . SVG Version: 6.00 Build 0)  -->
<svg version="1.1" id="Layer_1" xmlns="http://www.w3.org/2000/svg" xmlns:xlink="http://www.w3.org/1999/xlink" x="0px" y="0px"
	 viewBox="0 0 24 24" style="enable-background:new 0 0 24 24;" xml:space="preserve">
<g>
	<path fill="#00acee" d="M23.2,3.3h-2.4V0.8c0-0.4-0.3-0.8-0.8-0.8s-0.8,0.3-0.8,0.8v2.4h-2.4c-0.4,0-0.8,0.3-0.8,0.8s0.3,0.8,0.8,0.8h2.4v2.4
		c0,0.4,0.3,0.8,0.8,0.8s0.8-0.3,0.8-0.8V4.8h2.4C23.7,4.8,24,4.4,24,4S23.7,3.3,23.2,3.3z M20.1,10.1c-0.4,0-0.8,0.3-0.8,0.8V19
		c0,0.4-0.3,0.8-0.8,0.8H4.1c-0.4,0-0.8-0.3-0.8-0.8V8.3l6.8,4.5c0.4,0.2,0.8,0.4,1.2,0.4c0.4,0,0.8-0.1,1.2-0.4l4.5-3
		c0.3-0.2,0.4-0.7,0.2-1c-0.2-0.3-0.7-0.4-1-0.2l-4.5,3c-0.2,0.2-0.6,0.2-0.8,0L3.3,6.5v-1c0-0.4,0.3-0.8,0.8-0.8h9.1
		c0.4,0,0.8-0.3,0.8-0.8s-0.3-0.8-0.8-0.8H4.1c-1.2,0-2.2,1-2.2,2.2V19c0,1.2,1,2.2,2.2,2.2h14.5c1.2,0,2.2-1,2.2-2.2v-8.1
		C20.8,10.5,20.5,10.1,20.1,10.1L20.1,10.1z"/>
</g>
</svg>
