<?xml version="1.0" encoding="utf-8"?>
<!-- Generator: Adobe Illustrator 25.2.0, SVG Export Plug-In . SVG Version: 6.00 Build 0)  -->
<svg version="1.1" id="Layer_1" xmlns="http://www.w3.org/2000/svg" xmlns:xlink="http://www.w3.org/1999/xlink" x="0px" y="0px"
	 viewBox="0 0 24 24" style="enable-background:new 0 0 24 24;" xml:space="preserve">
<g>
	<path d="M21.7,16.5c0,0-2.1-1.6-2.1-6c0-2.5-0.8-4.8-2.3-6.3C15.9,2.7,14,1.9,12,1.9h0c-2,0-3.9,0.8-5.2,2.2
		c-1.5,1.6-2.4,3.8-2.3,6.3c0,4.3-2,6-2.1,6C2,16.7,1.9,17,2,17.3c0.1,0.3,0.4,0.5,0.7,0.5h4.9c0.1,2.3,2,4.2,4.3,4.2
		s4.2-1.9,4.3-4.2h4.9c0.3,0,0.6-0.2,0.7-0.5C22.1,17,22,16.7,21.7,16.5L21.7,16.5z M12,20.5c-1.5,0-2.7-1.2-2.8-2.7h5.7
		C14.7,19.3,13.5,20.5,12,20.5L12,20.5z M4.4,16.3c0.7-1.1,1.5-3,1.5-5.9c0-2.2,0.6-4,1.9-5.3c1.1-1.1,2.6-1.7,4.2-1.7
		c1.6,0,3.1,0.6,4.2,1.7c1.3,1.3,1.9,3.1,1.9,5.3c0,2.9,0.8,4.8,1.5,5.9L4.4,16.3L4.4,16.3z"/>
</g>
</svg>
