<?xml version="1.0" encoding="utf-8"?>
<!-- Generator: Adobe Illustrator 25.2.0, SVG Export Plug-In . SVG Version: 6.00 Build 0)  -->
<svg version="1.1" id="Layer_1" xmlns="http://www.w3.org/2000/svg" xmlns:xlink="http://www.w3.org/1999/xlink" x="0px" y="0px"
	 viewBox="0 0 24 24" style="enable-background:new 0 0 24 24;" xml:space="preserve">
<g>
	<path d="M12,11.8c1.4,0,2.9-0.1,3.8-1.3c0.8-0.9,1.1-2.4,0.8-4.4c-0.4-2.8-2.1-4.5-4.6-4.5S7.7,3.3,7.4,6.2c-0.3,2,0,3.5,0.8,4.4
		C9.1,11.7,10.6,11.8,12,11.8z M8.8,6.4C9,5.2,9.6,3.2,12,3.2s3,2,3.2,3.2c0.2,1.6,0.1,2.6-0.4,3.2c-0.5,0.5-1.3,0.7-2.7,0.7
		s-2.3-0.2-2.7-0.7C8.8,9,8.6,7.9,8.8,6.4z M20.3,19.2c-0.9-3.5-4.3-6-8.3-6s-7.4,2.5-8.3,6c-0.2,0.7,0,1.4,0.4,1.9
		c0.4,0.5,1,0.8,1.7,0.8h12.3c0.7,0,1.3-0.3,1.7-0.8C20.3,20.6,20.5,19.9,20.3,19.2L20.3,19.2z M18.7,20.3c-0.1,0.2-0.3,0.2-0.6,0.2
		H5.8c-0.2,0-0.4-0.1-0.6-0.2c-0.1-0.2-0.2-0.4-0.1-0.7c0.7-2.9,3.5-4.9,6.8-4.9s6.1,2,6.8,4.9C18.9,19.8,18.8,20.1,18.7,20.3z"/>
</g>
</svg>
